<svg xmlns="http://www.w3.org/2000/svg" width="32" height="32" viewBox="0 0 20 20"><rect width="20" height="20" rx="4" fill="#1a1a2e"/><path fill="#4dc9f6" d="M9.656 6.737a2.394 2.394 0 0 0-3.447-.01c-.95.975-.945 2.559.01 3.537l3.53 3.623c.146.15.384.15.53 0l1.23-1.26a1.5 1.5 0 0 1-.432-.653l-.002-.007a1.5 1.5 0 0 1-.325.035H9.5a1.5 1.5 0 1 1 0-3h.21l.385-1.028a1.5 1.5 0 0 1 2.828.052l.02.06a1.5 1.5 0 0 1 1.545.186 2.53 2.53 0 0 0-.706-1.522 2.395 2.395 0 0 0-3.45-.009l-.336.345-.34-.35Z"/><path fill="#00e676" d="M12.944 11.73a.5.5 0 0 1-.918-.072l-.553-1.66-.255.68a.5.5 0 0 1-.465.324H9.5a.5.5 0 1 1 0-1h.903l.629-1.677a.5.5 0 0 1 .942.017l.627 1.879.518-.998a.5.5 0 0 1 .816-.103l.789.882H15a.5.5 0 0 1 0 1h-.5a.5.5 0 0 1-.373-.167l-.455-.508z"/></svg>
