<?xml version="1.0" encoding="UTF-8"?>
<svg width="1200pt" height="1200pt" version="1.1" viewBox="0 0 1200 1200" xmlns="http://www.w3.org/2000/svg">
 <path d="m494.8 10.254c-138.1 0-250.66 112.3-250.66 250.25 0 89.094 46.961 167.52 117.42 211.93-166.42 55.516-286.17 212.24-286.17 397.27v130.43c-0.03125 7.957 3.0977 15.598 8.7031 21.246 5.6055 5.6484 13.223 8.8398 21.18 8.8711h352.56c7.9531-0.03125 15.574-3.2227 21.176-8.8711 5.6055-5.6484 8.7383-13.289 8.707-21.246-0.03125-7.918-3.1914-15.5-8.7891-21.098-5.5977-5.5977-13.18-8.7539-21.094-8.7852h-322.44v-100.55c0-199.3 159.71-358.77 359.41-358.77 65.242 0 125.96 17.059 178.48 46.992 6.8984 3.9648 15.09 5.0234 22.77 2.9453 7.6836-2.0781 14.223-7.1211 18.188-14.02 3.9648-6.9258 5.0078-15.148 2.8984-22.848-2.1133-7.6953-7.2031-14.234-14.148-18.168-23.629-13.469-48.707-24.664-74.941-33.398 70.461-44.418 117.42-122.84 117.42-211.93 0-137.95-112.57-250.25-250.66-250.25zm0 60c105.73 0 190.66 84.777 190.66 190.25 0 105.48-84.938 190.43-190.66 190.43s-190.66-84.953-190.66-190.43c0-105.48 84.938-190.25 190.66-190.25zm328.89 517.97c-165.93 0-301.23 135.02-301.23 300.76s135.3 300.76 301.23 300.76 300.94-135.02 300.94-300.76-135-300.76-300.94-300.76zm0 60.059c133.56 0 240.94 107.43 240.94 240.7s-107.38 240.7-240.94 240.7c-70.953 0-134.59-30.336-178.65-78.75-1.2969-1.4258-2.6055-2.8203-3.8672-4.2773-30.281-34.918-50.602-78.695-56.719-126.97-0.25391-2.0117-0.49609-4.0078-0.70312-6.0352-0.82031-8.1094-1.2305-16.34-1.2305-24.668 0-2.082 0.007812-4.1406 0.058593-6.2109 0.20703-8.2773 0.85547-16.445 1.875-24.492 0.25391-2.0117 0.51563-4.0391 0.82031-6.0352 17.633-115.74 117.38-203.96 238.42-203.96zm0 105.41c-7.957-0.03125-15.602 3.1016-21.25 8.7031-5.6484 5.6055-8.8359 13.223-8.8672 21.18v75.527h-75.527c-7.957-0.03125-15.602 3.0977-21.25 8.7031-5.6484 5.6055-8.8398 13.223-8.8672 21.18-0.03125 7.9961 3.1289 15.676 8.7852 21.332 5.6562 5.6523 13.332 8.8164 21.332 8.7852h75.527v75.293c-0.03125 7.9961 3.1289 15.676 8.7852 21.332 5.6562 5.6523 13.332 8.8164 21.332 8.7852 7.9531-0.03125 15.574-3.2227 21.176-8.8711 5.6055-5.6484 8.7383-13.289 8.707-21.246v-75.293h75.527c7.9961 0.03125 15.676-3.1328 21.328-8.7852 5.6562-5.6562 8.8203-13.336 8.7891-21.332-0.03125-7.957-3.2227-15.574-8.8711-21.18-5.6484-5.6016-13.293-8.7344-21.246-8.7031h-75.527v-75.527c-0.03125-7.918-3.1914-15.5-8.7891-21.098-5.5977-5.5977-13.18-8.7539-21.094-8.7852z" fill="#fff"/>
</svg>
