<?xml version="1.0" encoding="UTF-8"?>
<svg width="1200pt" height="1200pt" version="1.1" viewBox="0 0 1200 1200" xmlns="http://www.w3.org/2000/svg">
 <path d="m86.062 536.06c3.375 0 6.4688 1.7812 8.1562 4.6875l21 36.469c4.0781-87.375 31.734-171.98 80.062-244.87-18.656-7.5-34.594-20.391-45.844-37.031-56.719 83.812-88.969 181.82-93.094 282.94l21.656-37.5c1.6875-2.9062 4.7344-4.6875 8.0625-4.6875z" fill="#fff"/>
 <path d="m663.94 86.062c0 3.375-1.7812 6.4688-4.6875 8.1562l-36.469 21c90.234 4.2188 177.52 33.609 251.9 84.844 8.2969-18.375 21.984-33.844 39.281-44.25-85.781-60.609-187.26-95.156-292.22-99.469l37.5 21.656c2.9062 1.6875 4.6875 4.7344 4.6875 8.0625z" fill="#fff"/>
 <path d="m322.6 201.94c14.156-9.9375 28.828-19.078 43.969-27.375 67.266-36.984 142.36-57.422 219.1-59.625l50.062-28.875-51.938-29.906h-0.09375c-107.58 3-211.82 38.109-299.34 100.78 17.016 10.734 30.375 26.438 38.25 45z" fill="#fff"/>
 <path d="m890.34 211.22c-2.4844 6.375-4.125 13.078-4.9688 19.875-0.375 3.0938-0.5625 6.2344-0.5625 9.375 0.046875 44.203 35.859 80.016 80.062 80.062 2.8125 0 5.5312-0.1875 8.25-0.375 6.7969-0.70312 13.5-2.3438 19.875-4.7812 19.172-7.2188 34.875-21.516 43.875-39.938 3.3281-6.8438 5.6719-14.156 6.9375-21.656 0.75-4.4062 1.125-8.8594 1.125-13.312-0.09375-44.203-35.859-79.969-80.062-80.062-4.125 0-8.2031 0.28125-12.281 0.9375-7.5938 1.1719-15 3.4219-21.938 6.75-18.422 8.7656-32.812 24.188-40.312 43.125zm96.844 15.328c5.6719-0.09375 10.781 3.2812 12.984 8.4844 2.25 5.2031 1.0781 11.25-2.9062 15.234-3.9844 4.0312-9.9844 5.25-15.188 3.0938-5.25-2.1094-8.6719-7.2188-8.6719-12.891-0.046875-7.6406 6.1406-13.875 13.781-13.922zm-44.719-0.046875c7.6406 0.09375 13.781 6.3281 13.781 13.969s-6.1406 13.875-13.781 13.969c-0.70312 0-1.3594-0.09375-2.0625-0.1875-5.6719-0.9375-10.219-5.25-11.438-10.875v-0.09375c-0.1875-0.9375-0.28125-1.875-0.28125-2.8125-0.046875-7.6406 6.1406-13.922 13.781-13.969z" fill="#fff"/>
 <path d="m1004 331.22c7.5938 11.438 14.812 23.156 21.469 35.344 37.031 67.312 57.469 142.5 59.625 219.28l28.875 49.969 29.906-51.938c-1.9219-72.188-18.328-143.26-48.188-208.97-13.172-28.828-28.781-56.438-46.688-82.594-10.688 17.25-26.391 30.844-45 38.906z" fill="#fff"/>
 <path d="m311.44 233.44c-2.4844-27.469-18.938-51.75-43.5-64.312-11.203-5.8125-23.672-8.7656-36.281-8.7188-39.234 0-72.75 28.453-79.031 67.219-6.3281 38.719 16.406 76.312 53.625 88.781 6.6094 2.2031 13.5 3.5625 20.438 3.9375 1.6875 0.09375 3.2812 0.1875 4.9688 0.1875 44.203-0.046875 80.016-35.859 80.062-80.062 0-2.3438-0.09375-4.6875-0.28125-7.0312zm-79.781 21c-5.6719 0.09375-10.828-3.2812-13.031-8.4844-2.25-5.2031-1.0781-11.25 2.9062-15.281s9.9844-5.2969 15.234-3.1406 8.6719 7.2656 8.6719 12.938c0.046875 7.6406-6.1406 13.922-13.781 13.969z" fill="#fff"/>
 <path d="m195.84 868.5c-7.5938-11.344-14.625-22.969-21.281-35.062-36.984-67.266-57.422-142.36-59.625-219.1l-28.875-50.062-29.906 51.938v0.09375c1.875 72.141 18.328 143.16 48.375 208.78 12.656 28.031 27.797 54.891 45.188 80.25 11.297-16.641 27.375-29.484 46.125-36.844z" fill="#fff"/>
 <path d="m1113.9 663.94c-3.375 0-6.4688-1.7812-8.1562-4.6875l-21-36.375c-4.1719 88.125-32.344 173.39-81.469 246.66 18.609 7.875 34.312 21.281 45.094 38.344 58.031-84.469 91.078-183.61 95.25-286.03l-21.656 37.406c-1.6875 2.9062-4.7344 4.6875-8.0625 4.6875z" fill="#fff"/>
 <path d="m874.4 1000.2c-13.125 9-26.766 17.391-40.969 25.219-67.312 37.031-142.5 57.469-219.28 59.625l-49.969 28.875 51.938 29.906c106.69-3.0469 210.1-37.453 297.28-99-17.297-10.5-30.891-26.109-39-44.625z" fill="#fff"/>
 <path d="m536.06 1113.9c0-3.375 1.7812-6.4688 4.6875-8.1562l36.375-21c-91.172-4.3594-179.26-34.359-254.16-86.531-7.6406 18.609-20.859 34.406-37.781 45.281 85.922 60.984 187.69 95.766 292.97 100.12l-37.406-21.656c-2.9062-1.6875-4.6875-4.7344-4.6875-8.0625z" fill="#fff"/>
 <path d="m914.06 532.6c-2.9531-1.125-5.1562-3.6094-5.9062-6.6562-7.6875-32.297-20.484-63.141-37.875-91.406-1.6875-2.6719-1.875-6.0469-0.5625-8.9062l23.156-49.688-68.812-68.812-49.688 23.156c-2.8594 1.3125-6.2344 1.125-8.9062-0.5625-28.266-17.391-59.109-30.188-91.406-37.875-3.0469-0.75-5.5312-2.9531-6.6562-5.9062l-18.75-51.469h-97.312l-18.75 51.469c-1.125 2.9531-3.6094 5.1562-6.6562 5.9062-32.297 7.6875-63.141 20.484-91.406 37.875-2.6719 1.6875-6.0469 1.875-8.9062 0.5625l-49.688-23.156-68.812 68.812 23.156 49.688c1.3125 2.8594 1.125 6.2344-0.5625 8.9062-17.391 28.266-30.188 59.109-37.875 91.406-0.75 3.0469-2.9531 5.5312-5.9062 6.6562l-51.469 18.75v97.312l51.469 18.75c2.9531 1.125 5.1562 3.6094 5.9062 6.6562 7.6875 32.297 20.484 63.141 37.875 91.406 1.6875 2.6719 1.875 6.0469 0.5625 8.9062l-23.156 49.688 68.812 68.812 49.688-23.156c2.8594-1.3125 6.2344-1.125 8.9062 0.5625 28.266 17.391 59.109 30.188 91.406 37.875 3.0469 0.75 5.5312 2.9531 6.6562 5.9062l18.75 51.469h97.312l18.75-51.469c1.125-2.9531 3.6094-5.1562 6.6562-5.9062 32.297-7.6875 63.141-20.484 91.406-37.875 2.6719-1.6875 6.0469-1.875 8.9062-0.5625l49.688 23.156 68.812-68.812-23.156-49.688c-1.3125-2.8594-1.125-6.2344 0.5625-8.9062 17.391-28.266 30.188-59.109 37.875-91.406 0.75-3.0469 2.9531-5.5312 5.9062-6.6562l51.469-18.75v-97.312zm-314.06 278.06c-55.875 0-109.45-22.172-148.97-61.688s-61.688-93.094-61.688-148.97 22.172-109.45 61.688-148.97 93.094-61.688 148.97-61.688 109.45 22.172 148.97 61.688 61.688 93.094 61.688 148.97c-0.046875 55.828-22.266 109.41-61.781 148.87-39.469 39.516-93.047 61.734-148.87 61.781z" fill="#fff"/>
 <path d="m1043.6 946.13c-1.4062-7.4531-3.7969-14.625-7.2188-21.375-9.1875-18.234-24.938-32.297-44.062-39.375-6.4219-2.3438-13.125-3.8906-19.969-4.5-2.4844-0.28125-5.0156-0.375-7.5-0.375-44.203 0.09375-79.969 35.859-80.062 80.062 0 2.8594 0.1875 5.7188 0.46875 8.5312 0.70312 6.7969 2.3438 13.5 4.7812 19.875 7.2656 19.125 21.562 34.734 39.938 43.688 6.8438 3.2812 14.062 5.625 21.562 6.8438 4.4062 0.75 8.8594 1.125 13.312 1.125 44.203-0.09375 79.969-35.859 80.062-80.062 0-4.8281-0.46875-9.6562-1.3125-14.438zm-101.16 42.375c-5.625 0.046875-10.781-3.2812-12.984-8.4844s-1.0781-11.25 2.9062-15.281 9.9844-5.25 15.234-3.0938c5.2031 2.1562 8.625 7.2656 8.625 12.891 0.046875 7.6875-6.0938 13.922-13.781 13.969zm22.359-33.516c-5.625 0.09375-10.781-3.2812-12.984-8.4844s-1.0312-11.25 2.9062-15.234c3.9844-4.0312 9.9844-5.25 15.234-3.0938 5.2031 2.1094 8.625 7.2188 8.625 12.891 0.046875 3.6562-1.4062 7.2188-3.9844 9.7969-2.5781 2.625-6.0938 4.125-9.7969 4.125zm22.359 33.516c-1.8281 0-3.6094-0.375-5.25-1.125h-0.09375c-6.0469-2.625-9.4688-9.0938-8.1562-15.562 1.2656-6.4688 6.8906-11.156 13.5-11.25 5.4844 0 10.406 3.2812 12.562 8.3438 0.84375 1.7344 1.2656 3.7031 1.2188 5.625 0.046875 7.6406-6.1406 13.922-13.781 13.969z" fill="#fff"/>
 <path d="m231.66 880.5c-1.4062 0-2.8125 0-4.2188 0.09375-6.9844 0.375-13.875 1.6406-20.531 3.8438-19.359 6.3281-35.578 19.828-45.375 37.688-6.5156 11.766-9.9375 24.984-9.9375 38.438 0.046875 44.203 35.859 80.016 80.062 80.062 12.984 0 25.734-3.1406 37.219-9.1875 24.469-12.797 40.594-37.312 42.656-64.875 0.09375-1.9688 0.1875-3.9375 0.1875-6-0.09375-44.203-35.859-79.969-80.062-80.062zm-11.719 108.66c-2.5781 3.2812-6.5156 5.2031-10.688 5.1562-5.9062-0.046875-11.156-3.8438-13.031-9.4219-1.9219-5.5781-0.046875-11.766 4.5938-15.422 2.3906-1.9219 5.3438-3 8.4375-3 3.7031 0 7.2188 1.5 9.7969 4.125s4.0312 6.1406 3.9844 9.8438c0 3.1875-1.0781 6.2812-3.0938 8.7188zm-10.641-34.406c-5.6719 0.046875-10.781-3.2812-13.031-8.4844-2.2031-5.2031-1.0312-11.25 2.9531-15.281 3.9844-3.9844 9.9844-5.2031 15.188-3.0938 5.25 2.1562 8.6719 7.2656 8.6719 12.938 0.046875 7.6406-6.1406 13.875-13.781 13.922zm35.484-24.281c2.4844-2.2969 5.7656-3.6094 9.1875-3.5625 3.6562 0 7.1719 1.4531 9.7969 4.0781 2.5781 2.5781 4.0312 6.1406 3.9844 9.7969 0.046875 3.4219-1.2656 6.75-3.5625 9.2812-2.5312 3-6.2812 4.7344-10.219 4.6875-5.7188-0.046875-10.828-3.6562-12.891-9-2.0156-5.3906-0.5625-11.438 3.7031-15.281zm9.2344 63.891c-5.6719 0.046875-10.781-3.2812-13.031-8.5312-2.2031-5.2031-1.0312-11.203 2.9531-15.234s9.9844-5.25 15.188-3.0938c5.25 2.1562 8.6719 7.2656 8.6719 12.891 0.046875 7.6875-6.1406 13.922-13.781 13.969z" fill="#fff"/>
</svg>
